<?xml version="1.0" encoding="UTF-8" standalone="no"?>
<!DOCTYPE svg PUBLIC "-//W3C//DTD SVG 1.1//EN"
 "http://www.w3.org/Graphics/SVG/1.1/DTD/svg11.dtd">
<!-- Generated by graphviz version 2.44.1 (20200629.0846)
 -->
<!-- Pages: 1 -->
<svg width="645pt" height="530pt"
 viewBox="0.00 0.00 645.00 530.00" xmlns="http://www.w3.org/2000/svg" xmlns:xlink="http://www.w3.org/1999/xlink">
<g id="graph0" class="graph" transform="scale(1 1) rotate(0) translate(4 526)">
<polygon fill="white" stroke="transparent" points="-4,4 -4,-526 641,-526 641,4 -4,4"/>
<!-- 2 -->
<g id="node1" class="node">
<title>2</title>
<polygon fill="#97ffff" stroke="black" points="120,-279 0,-279 0,-243 120,-243 120,-279"/>
<text text-anchor="start" x="8" y="-258.3" font-family="Times New Roman,serif" font-weight="bold" font-size="14.00">Query 1</text>
<text text-anchor="start" x="58" y="-258.3" font-family="Times New Roman,serif" font-size="14.00">: PK = &#39;*&#39;</text>
</g>
<!-- 3 -->
<g id="node2" class="node">
<title>3</title>
<polygon fill="#c1ffc1" stroke="black" points="441,-522 164,-522 164,-486 441,-486 441,-522"/>
<text text-anchor="start" x="172" y="-501.3" font-family="Times New Roman,serif" font-weight="bold" font-size="14.00">2 results</text>
<text text-anchor="start" x="224" y="-501.3" font-family="Times New Roman,serif" font-size="14.00">: Dashner, Cleopatra &#45; Davis, Gemma</text>
</g>
<!-- 2&#45;&gt;3 -->
<g id="edge1" class="edge">
<title>2&#45;&gt;3</title>
<path fill="none" stroke="black" d="M63.29,-279.23C69.59,-321.35 91.3,-425.74 156,-477 157.59,-478.26 159.21,-479.46 160.87,-480.62"/>
<polygon fill="black" stroke="black" points="159.13,-483.65 169.47,-485.98 162.84,-477.72 159.13,-483.65"/>
</g>
<!-- 4 -->
<g id="node3" class="node">
<title>4</title>
<polygon fill="beige" stroke="black" points="431,-468 174,-468 174,-432 431,-432 431,-468"/>
<text text-anchor="start" x="182" y="-447.3" font-family="Times New Roman,serif" font-weight="bold" font-size="14.00">Query 2</text>
<text text-anchor="start" x="232" y="-447.3" font-family="Times New Roman,serif" font-size="14.00">: PK = &#39;Davis&#39; and RK &gt; &#39;Gemma&#39;</text>
</g>
<!-- 2&#45;&gt;4 -->
<g id="edge2" class="edge">
<title>2&#45;&gt;4</title>
<path fill="none" stroke="black" d="M66.07,-279.04C76.65,-313.13 104.49,-386.85 156,-423 158.79,-424.96 161.67,-426.78 164.65,-428.48"/>
<polygon fill="black" stroke="black" points="163.3,-431.73 173.79,-433.24 166.53,-425.52 163.3,-431.73"/>
</g>
<!-- 6 -->
<g id="node5" class="node">
<title>6</title>
<polygon fill="#97ffff" stroke="black" points="417,-414 188,-414 188,-378 417,-378 417,-414"/>
<text text-anchor="start" x="196" y="-393.3" font-family="Times New Roman,serif" font-weight="bold" font-size="14.00">Query 3</text>
<text text-anchor="start" x="246" y="-393.3" font-family="Times New Roman,serif" font-size="14.00">: PK = &#39;D*&#39; and PK &gt; &#39;Davis&#39;</text>
</g>
<!-- 2&#45;&gt;6 -->
<g id="edge4" class="edge">
<title>2&#45;&gt;6</title>
<path fill="none" stroke="black" d="M71.58,-279.27C86.86,-303.9 117.56,-347.18 156,-369 162.99,-372.97 170.44,-376.37 178.14,-379.28"/>
<polygon fill="black" stroke="black" points="177.05,-382.61 187.64,-382.6 179.36,-376 177.05,-382.61"/>
</g>
<!-- 8 -->
<g id="node7" class="node">
<title>8</title>
<polygon fill="#c1ffc1" stroke="black" points="443.5,-360 161.5,-360 161.5,-324 443.5,-324 443.5,-360"/>
<text text-anchor="start" x="169.5" y="-339.3" font-family="Times New Roman,serif" font-weight="bold" font-size="14.00">2 results</text>
<text text-anchor="start" x="221.5" y="-339.3" font-family="Times New Roman,serif" font-size="14.00">: Hartlage, Marketta &#45; Nuckles, Timmy</text>
</g>
<!-- 2&#45;&gt;8 -->
<g id="edge6" class="edge">
<title>2&#45;&gt;8</title>
<path fill="none" stroke="black" d="M87.27,-279.12C105.72,-291.03 131.41,-306.02 156,-315 162.24,-317.28 168.71,-319.37 175.29,-321.3"/>
<polygon fill="black" stroke="black" points="174.43,-324.69 185,-324 176.3,-317.95 174.43,-324.69"/>
</g>
<!-- 9 -->
<g id="node8" class="node">
<title>9</title>
<polygon fill="beige" stroke="black" points="436,-306 169,-306 169,-270 436,-270 436,-306"/>
<text text-anchor="start" x="177" y="-285.3" font-family="Times New Roman,serif" font-weight="bold" font-size="14.00">Query 4</text>
<text text-anchor="start" x="227" y="-285.3" font-family="Times New Roman,serif" font-size="14.00">: PK = &#39;Nuckles&#39; and RK &gt; &#39;Timmy&#39;</text>
</g>
<!-- 2&#45;&gt;9 -->
<g id="edge7" class="edge">
<title>2&#45;&gt;9</title>
<path fill="none" stroke="black" d="M120.14,-267.64C132,-268.97 144.94,-270.42 158.27,-271.92"/>
<polygon fill="black" stroke="black" points="158.2,-275.43 168.53,-273.07 158.98,-268.48 158.2,-275.43"/>
</g>
<!-- 10 -->
<g id="node9" class="node">
<title>10</title>
<polygon fill="#97ffff" stroke="black" points="423.5,-252 181.5,-252 181.5,-216 423.5,-216 423.5,-252"/>
<text text-anchor="start" x="189.5" y="-231.3" font-family="Times New Roman,serif" font-weight="bold" font-size="14.00">Query 5</text>
<text text-anchor="start" x="239.5" y="-231.3" font-family="Times New Roman,serif" font-size="14.00">: PK = &#39;N*&#39; and PK &gt; &#39;Nuckles&#39;</text>
</g>
<!-- 2&#45;&gt;10 -->
<g id="edge8" class="edge">
<title>2&#45;&gt;10</title>
<path fill="none" stroke="black" d="M120.14,-254.36C135.87,-252.6 153.49,-250.62 171.41,-248.61"/>
<polygon fill="black" stroke="black" points="171.83,-252.08 181.38,-247.49 171.05,-245.12 171.83,-252.08"/>
</g>
<!-- 11 -->
<g id="node10" class="node">
<title>11</title>
<polygon fill="#c1ffc1" stroke="black" points="425.5,-198 179.5,-198 179.5,-162 425.5,-162 425.5,-198"/>
<text text-anchor="start" x="187.5" y="-177.3" font-family="Times New Roman,serif" font-weight="bold" font-size="14.00">2 results</text>
<text text-anchor="start" x="239.5" y="-177.3" font-family="Times New Roman,serif" font-size="14.00">: Rundle, Coleen &#45; Splawn, Lise</text>
</g>
<!-- 2&#45;&gt;11 -->
<g id="edge9" class="edge">
<title>2&#45;&gt;11</title>
<path fill="none" stroke="black" d="M87.27,-242.88C105.72,-230.97 131.41,-215.98 156,-207 162.24,-204.72 168.71,-202.63 175.29,-200.7"/>
<polygon fill="black" stroke="black" points="176.3,-204.05 185,-198 174.43,-197.31 176.3,-204.05"/>
</g>
<!-- 12 -->
<g id="node11" class="node">
<title>12</title>
<polygon fill="beige" stroke="black" points="426,-144 179,-144 179,-108 426,-108 426,-144"/>
<text text-anchor="start" x="187" y="-123.3" font-family="Times New Roman,serif" font-weight="bold" font-size="14.00">Query 6</text>
<text text-anchor="start" x="237" y="-123.3" font-family="Times New Roman,serif" font-size="14.00">: PK = &#39;Splawn&#39; and RK &gt; &#39;Lise&#39;</text>
</g>
<!-- 2&#45;&gt;12 -->
<g id="edge10" class="edge">
<title>2&#45;&gt;12</title>
<path fill="none" stroke="black" d="M71.58,-242.73C86.86,-218.1 117.56,-174.82 156,-153 160.24,-150.59 164.66,-148.39 169.2,-146.38"/>
<polygon fill="black" stroke="black" points="170.73,-149.53 178.67,-142.52 168.09,-143.05 170.73,-149.53"/>
</g>
<!-- 13 -->
<g id="node12" class="node">
<title>13</title>
<polygon fill="#97ffff" stroke="black" points="421,-90 184,-90 184,-54 421,-54 421,-90"/>
<text text-anchor="start" x="192" y="-69.3" font-family="Times New Roman,serif" font-weight="bold" font-size="14.00">Query 7</text>
<text text-anchor="start" x="242" y="-69.3" font-family="Times New Roman,serif" font-size="14.00">: PK = &#39;S*&#39; and PK &gt; &#39;Splawn&#39;</text>
</g>
<!-- 2&#45;&gt;13 -->
<g id="edge11" class="edge">
<title>2&#45;&gt;13</title>
<path fill="none" stroke="black" d="M66.07,-242.96C76.65,-208.87 104.49,-135.15 156,-99 161.72,-94.98 167.87,-91.52 174.29,-88.53"/>
<polygon fill="black" stroke="black" points="176.03,-91.59 183.88,-84.48 173.3,-85.15 176.03,-91.59"/>
</g>
<!-- 14 -->
<g id="node13" class="node">
<title>14</title>
<polygon fill="#c1ffc1" stroke="black" points="449,-36 156,-36 156,0 449,0 449,-36"/>
<text text-anchor="start" x="164" y="-15.3" font-family="Times New Roman,serif" font-weight="bold" font-size="14.00">2 results</text>
<text text-anchor="start" x="216" y="-15.3" font-family="Times New Roman,serif" font-size="14.00">: Wedell, Annabelle &#45; Wongus, Rosenda</text>
</g>
<!-- 2&#45;&gt;14 -->
<g id="edge12" class="edge">
<title>2&#45;&gt;14</title>
<path fill="none" stroke="black" d="M63.29,-242.77C69.59,-200.65 91.3,-96.26 156,-45 157.59,-43.74 159.21,-42.54 160.87,-41.38"/>
<polygon fill="black" stroke="black" points="162.84,-44.28 169.47,-36.02 159.13,-38.35 162.84,-44.28"/>
</g>
<!-- 5 -->
<g id="node4" class="node">
<title>5</title>
<polygon fill="#c1ffc1" stroke="black" points="636,-468 486,-468 486,-432 636,-432 636,-468"/>
<text text-anchor="start" x="494" y="-447.3" font-family="Times New Roman,serif" font-weight="bold" font-size="14.00">1 result</text>
<text text-anchor="start" x="540" y="-447.3" font-family="Times New Roman,serif" font-size="14.00">: Davis, Loralee</text>
</g>
<!-- 4&#45;&gt;5 -->
<g id="edge3" class="edge">
<title>4&#45;&gt;5</title>
<path fill="none" stroke="black" d="M431.37,-450C446.42,-450 461.47,-450 475.7,-450"/>
<polygon fill="black" stroke="black" points="475.91,-453.5 485.91,-450 475.91,-446.5 475.91,-453.5"/>
</g>
<!-- 7 -->
<g id="node6" class="node">
<title>7</title>
<polygon fill="#c1ffc1" stroke="black" points="637,-414 485,-414 485,-378 637,-378 637,-414"/>
<text text-anchor="start" x="493" y="-393.3" font-family="Times New Roman,serif" font-weight="bold" font-size="14.00">1 result</text>
<text text-anchor="start" x="539" y="-393.3" font-family="Times New Roman,serif" font-size="14.00">: Dodge, Lowell</text>
</g>
<!-- 6&#45;&gt;7 -->
<g id="edge5" class="edge">
<title>6&#45;&gt;7</title>
<path fill="none" stroke="black" d="M417.12,-396C436.46,-396 456.24,-396 474.69,-396"/>
<polygon fill="black" stroke="black" points="474.78,-399.5 484.78,-396 474.78,-392.5 474.78,-399.5"/>
</g>
</g>
</svg>
